<svg xmlns="http://www.w3.org/2000/svg" viewBox="0 0 1440 220">
    <path fill="#2C2F33" fill-opacity="1" d="M0,96L34.3,106.7C68.6,117,137,139,206,122.7C274.3,107,343,53,411,53.3C480,53,549,107,617,117.3C685.7,128,754,96,823,96C891.4,96,960,128,1029,154.7C1097.1,181,1166,203,1234,202.7C1302.9,203,1371,181,1406,170.7L1440,160L1440,0L1405.7,0C1371.4,0,1303,0,1234,0C1165.7,0,1097,0,1029,0C960,0,891,0,823,0C754.3,0,686,0,617,0C548.6,0,480,0,411,0C342.9,0,274,0,206,0C137.1,0,69,0,34,0L0,0Z"></path>
</svg>